# xmcd
# 
# Track frame offsets:
#     150
#     117000
#     233850
# 
# Disc length: 4676
# 
# Revision: 23
# Processed by: cddbd v1.5.2PL0 Copyright (c) Steve Scherf et al.
# Submitted via: BonkEnc v1.0.15
# 
DISCID=1b124203
DTITLE=Vision Forum - Jonathan Park - Volume II - No Looking Back disc 04
DYEAR=2004
DGENRE=Audiobook
TTITLE0=10-Mystery at McBane Manor Part 2
TTITLE1=11-The Blazing Star Part 1
TTITLE2=12-The Blazing Star Part 2
EXTD=YEAR: 2004
EXTT0=
EXTT1=
EXTT2=
PLAYORDER=
